<?xml version="1.0" encoding="utf-8"?>
<!-- Generator: Adobe Illustrator 13.0.0, SVG Export Plug-In . SVG Version: 6.00 Build 14948)  -->
<!DOCTYPE svg PUBLIC "-//W3C//DTD SVG 1.1//EN" "http://www.w3.org/Graphics/SVG/1.1/DTD/svg11.dtd">
<svg version="1.1" id="Capa_1" xmlns="http://www.w3.org/2000/svg" xmlns:xlink="http://www.w3.org/1999/xlink" x="0px" y="0px"
	 width="297.637px" height="419.527px" viewBox="0 0 297.637 419.527" enable-background="new 0 0 297.637 419.527"
	 xml:space="preserve">
<g>
	<path fill="#010002" d="M285.157,197.719v-28.211c0-9.877-8.043-17.906-17.922-17.906c-6.438,0-12.371,3.49-15.539,9.041
		c-3.184-5.551-9.117-9.041-15.553-9.041c-9.873,0-17.906,8.029-17.906,17.906v27.95H79.411v-27.95
		c0-9.877-8.039-17.906-17.922-17.906c-6.438,0-12.375,3.49-15.549,9.041c-3.168-5.551-9.096-9.041-15.539-9.041
		c-9.877,0-17.922,8.029-17.922,17.906v28.211C5.324,198.871,0,205.018,0,212.305c0,7.283,5.324,13.434,12.481,14.598v23.104
		c0,9.883,8.039,17.922,17.922,17.922c6.441,0,12.371-3.506,15.539-9.057c3.173,5.551,9.111,9.057,15.549,9.057
		c9.877,0,17.922-8.039,17.922-17.922v-27.949h138.831v27.949c0,9.883,8.034,17.922,17.906,17.922
		c6.438,0,12.371-3.506,15.554-9.057c3.168,5.551,9.102,9.057,15.539,9.057c9.877,0,17.922-8.039,17.922-17.922v-23.104
		c7.168-1.164,12.477-7.313,12.477-14.598C297.633,205.018,292.325,198.867,285.157,197.719z M292.877,212.305
		c0,4.684-3.254,8.748-7.717,9.826v-19.654C289.625,203.561,292.877,207.621,292.877,212.305z M267.241,263.178
		c-7.264,0-13.176-5.908-13.176-13.172v-80.499c0-7.264,5.914-13.176,13.176-13.176s13.166,5.914,13.166,13.176v80.499
		C280.407,257.273,274.504,263.178,267.241,263.178z M222.983,197.457v-27.95c0-7.264,5.908-13.176,13.166-13.176
		c7.264,0,13.166,5.914,13.166,13.176v80.499c0,7.264-5.902,13.172-13.166,13.172c-7.258,0-13.166-5.908-13.166-13.172v-27.949
		h0.523v-24.605h-0.523V197.457z M218.243,202.197v15.131H79.411v-15.131H218.243z M61.491,263.178
		c-7.258,0-13.162-5.908-13.162-13.172v-80.499c0-7.264,5.903-13.176,13.162-13.176c7.268,0,13.172,5.914,13.172,13.176v80.499
		C74.661,257.273,68.758,263.178,61.491,263.178z M30.403,263.178c-7.268,0-13.182-5.908-13.182-13.172v-80.499
		c0-7.264,5.909-13.176,13.182-13.176c7.268,0,13.166,5.914,13.166,13.176v80.499C43.569,257.273,37.67,263.178,30.403,263.178z
		 M12.486,202.479v19.654c-4.473-1.078-7.727-5.143-7.727-9.826C4.76,207.623,8.014,203.557,12.486,202.479z"/>
</g>
</svg>
