<?xml version="1.0" encoding="utf-8"?>
<!-- Generator: Adobe Illustrator 13.0.0, SVG Export Plug-In . SVG Version: 6.00 Build 14948)  -->
<!DOCTYPE svg PUBLIC "-//W3C//DTD SVG 1.1//EN" "http://www.w3.org/Graphics/SVG/1.1/DTD/svg11.dtd">
<svg version="1.1" id="Capa_1" xmlns="http://www.w3.org/2000/svg" xmlns:xlink="http://www.w3.org/1999/xlink" x="0px" y="0px"
	 width="297.637px" height="419.527px" viewBox="0 0 297.637 419.527" enable-background="new 0 0 297.637 419.527"
	 xml:space="preserve">
<path fill="#000002" d="M157.148,358.125c-3.545,0-7.104-0.73-10.454-2.211L80.86,326.813c-8.491-3.751-18.25-3.05-26.113,1.874
	l-18.665,11.688c-1.858,1.16-4.305,0.602-5.468-1.257c-1.162-1.856-0.6-4.306,1.257-5.467l18.665-11.688
	c10.098-6.324,22.633-7.225,33.533-2.406l65.835,29.102c5.49,2.426,11.788,1.951,16.852-1.27l119.688-76.139
	c3.156-2.008,4.193-6.135,2.357-9.396l-4.351-7.735c-0.939-1.669-2.478-2.86-4.327-3.354c-1.854-0.494-3.776-0.224-5.424,0.759
	l-7.975,4.761c-3.474,2.073-7.984,1.082-10.27-2.257l-4.973-7.266c-2.174-3.182-6.41-4.03-9.643-1.935l-11.766,7.623
	c-3.425,2.219-7.942,1.338-10.278-2.009l-4.118-5.896c-2.201-3.156-6.581-3.956-9.755-1.78l-29.104,19.935h12.195
	c12.666,0,22.973,10.304,22.973,22.972c0,12.666-10.305,22.971-22.973,22.971H144.04c-4.557,0-9.125-1.067-13.211-3.089
	l-25.594-12.659c-1.963-0.971-2.768-3.35-1.798-5.314c0.971-1.965,3.347-2.77,5.315-1.796l25.595,12.659
	c2.999,1.482,6.35,2.266,9.693,2.266h44.973c8.291,0,15.039-6.745,15.039-15.037c0-8.293-6.748-15.038-15.039-15.038h-25.006
	c-0.023,0-0.043,0-0.065,0l-24.993-0.333c-0.678-0.01-1.342-0.192-1.93-0.53l-41.025-23.652c-14.1-8.13-31.304-8.823-46.015-1.856
	L5.667,265.248c-1.982,0.938-4.345,0.092-5.284-1.887c-0.938-1.98-0.094-4.346,1.887-5.283l44.312-20.99
	c6.209-2.941,12.8-4.705,19.463-5.307v-60.988H45.681c-1.604,0-3.051-0.966-3.666-2.448c-0.614-1.482-0.274-3.188,0.86-4.322
	L144.333,62.565c1.539-1.541,4.035-1.549,5.587-0.024l103.139,101.458c1.148,1.13,1.5,2.84,0.891,4.33
	c-0.611,1.49-2.062,2.464-3.67,2.464h-23.441v73.52c0,0.285-0.03,0.564-0.089,0.833l10.775-6.98
	c6.874-4.456,15.882-2.646,20.506,4.113l4.835,7.063l7.769-4.635c3.499-2.088,7.596-2.66,11.531-1.611
	c3.935,1.049,7.204,3.581,9.2,7.131l4.351,7.734c3.899,6.934,1.698,15.709-5.015,19.98L171.014,354.08
	C166.795,356.763,161.985,358.125,157.148,358.125z M140.087,262.377l22.714,0.304l38.637-26.464
	c5.416-3.709,12.47-3.352,17.465,0.389v-69.779c0-2.191,1.775-3.967,3.967-3.967h17.719l-93.426-91.904l-91.905,91.904h14.753
	c2.191,0,3.967,1.775,3.967,3.967v64.791c9.016,0.433,17.932,2.984,25.978,7.624L140.087,262.377z"/>
</svg>
