<?xml version="1.0" encoding="utf-8"?>
<!-- Generator: Adobe Illustrator 13.0.0, SVG Export Plug-In . SVG Version: 6.00 Build 14948)  -->
<!DOCTYPE svg PUBLIC "-//W3C//DTD SVG 1.1//EN" "http://www.w3.org/Graphics/SVG/1.1/DTD/svg11.dtd">
<svg version="1.1" id="Capa_1" xmlns="http://www.w3.org/2000/svg" xmlns:xlink="http://www.w3.org/1999/xlink" x="0px" y="0px"
	 width="297.637px" height="419.527px" viewBox="0 0 297.637 419.527" enable-background="new 0 0 297.637 419.527"
	 xml:space="preserve">
<g>
	<path fill="#010002" d="M42.157,259.408c29.666,0,67.253-9.357,67.702-9.476c0.038-0.019,4.008-1.458,7.063-1.458
		c0.892,0,1.328,0.124,1.502,0.187c0.611,1.683-0.973,5.847-2.911,8.958c-0.848,1.906-20.545,46.863-10.055,66.199
		c2.656,4.894,6.87,7.842,12.542,8.777c8.434,1.383,17.086,2.082,25.744,2.082h0.013c79.303,0,151.169-57.236,153.806-122.477
		c1.185-29.777-11.838-61.855-34.846-85.804c-25.75-26.792-61.418-41.553-100.415-41.553c-17.766,0-36.261,3.011-54.986,8.951
		c-73.699,23.37-96.501,70.177-103.533,96.002c-7.437,27.353-2.936,51.576,5.081,60.478
		C14.387,256.422,25.277,259.408,42.157,259.408z M11.308,191.842c6.607-24.286,28.163-68.363,98.365-90.623
		c17.965-5.697,35.674-8.583,52.623-8.583c36.871,0,70.539,13.907,94.806,39.152c21.568,22.453,33.78,52.393,32.663,80.094
		c-2.418,60.191-72.021,115.002-146.025,114.996c-8.222,0-16.463-0.667-24.479-1.982c-3.223-0.523-5.492-2.094-6.951-4.799
		c-7.087-13.066,4.881-46.957,10.03-58.801c0.648-0.992,6.203-9.868,2.986-16.289c-0.991-1.976-3.254-4.338-8.409-4.338
		c-1.577,0-7.456,0.828-9.357,1.914l-0.025-0.082c-1.527,0.375-37.775,9.107-65.383,9.107c-17.865,0-24.809-3.559-27.496-6.551
		C8.976,238.75,4.176,218.066,11.308,191.842z"/>
	<path fill="#010002" d="M63.956,200.9c13.838,0,25.09-11.251,25.09-25.084c0-13.832-11.258-25.077-25.09-25.077
		c-13.833,0-25.078,11.251-25.078,25.077C38.872,189.648,50.124,200.9,63.956,200.9z M63.956,158.524
		c9.537,0,17.298,7.754,17.298,17.286c0,9.537-7.761,17.292-17.298,17.292c-9.531,0-17.286-7.761-17.286-17.292
		C46.664,166.279,54.418,158.524,63.956,158.524z"/>
	<path fill="#010002" d="M117.402,163.437c13.826,0,25.065-11.252,25.065-25.084s-11.245-25.077-25.065-25.077
		c-13.832,0-25.077,11.251-25.077,25.077C92.318,152.185,103.57,163.437,117.402,163.437z M117.402,121.061
		c9.525,0,17.273,7.754,17.273,17.286c0,9.537-7.749,17.292-17.273,17.292c-9.531,0-17.285-7.761-17.285-17.292
		C100.11,128.815,107.865,121.061,117.402,121.061z"/>
	<path fill="#010002" d="M175.729,163.437c13.838,0,25.09-11.252,25.09-25.084s-11.258-25.077-25.09-25.077
		s-25.078,11.251-25.078,25.077C150.651,152.185,161.897,163.437,175.729,163.437z M175.729,121.061
		c9.537,0,17.298,7.754,17.298,17.286c0,9.537-7.761,17.292-17.298,17.292c-9.531,0-17.285-7.761-17.285-17.292
		C158.444,128.815,166.198,121.061,175.729,121.061z"/>
	<path fill="#010002" d="M226.719,192.915c13.832,0,25.077-11.251,25.077-25.083s-11.251-25.084-25.077-25.084
		c-13.838,0-25.09,11.252-25.09,25.084C201.624,181.663,212.881,192.915,226.719,192.915z M226.719,150.539
		c9.531,0,17.285,7.761,17.285,17.292c0,9.537-7.754,17.292-17.285,17.292c-9.537,0-17.299-7.754-17.299-17.292
		C209.415,158.3,217.182,150.539,226.719,150.539z"/>
	<path fill="#010002" d="M220.061,230.945c0,13.832,11.258,25.084,25.091,25.084c13.832,0,25.077-11.252,25.077-25.084
		s-11.252-25.083-25.077-25.083C231.313,205.862,220.061,217.113,220.061,230.945z M262.437,230.945
		c0,9.537-7.755,17.291-17.285,17.291c-9.538,0-17.298-7.76-17.298-17.291s7.76-17.292,17.298-17.292
		C254.682,213.653,262.437,221.408,262.437,230.945z"/>
	<path fill="#010002" d="M159.771,262.475c-13.838,0-25.09,11.252-25.09,25.084s11.258,25.083,25.09,25.083
		c13.833,0,25.077-11.251,25.077-25.083S173.597,262.475,159.771,262.475z M159.771,304.85c-9.537,0-17.298-7.754-17.298-17.291
		s7.761-17.293,17.298-17.293c9.531,0,17.286,7.762,17.286,17.293C177.057,297.089,169.302,304.85,159.771,304.85z"/>
</g>
</svg>
