<?xml version="1.0" encoding="utf-8"?>
<!-- Generator: Adobe Illustrator 13.0.0, SVG Export Plug-In . SVG Version: 6.00 Build 14948)  -->
<!DOCTYPE svg PUBLIC "-//W3C//DTD SVG 1.1//EN" "http://www.w3.org/Graphics/SVG/1.1/DTD/svg11.dtd">
<svg version="1.1" id="Capa_1" xmlns="http://www.w3.org/2000/svg" xmlns:xlink="http://www.w3.org/1999/xlink" x="0px" y="0px"
	 width="297.637px" height="419.527px" viewBox="0 0 297.637 419.527" enable-background="new 0 0 297.637 419.527"
	 xml:space="preserve">
<g>
	<path fill="#010002" d="M219.538,242.665c2.156-1.814,4.168-3.806,6.272-5.672C217.836,244.822,213.606,248.141,219.538,242.665z
		 M281.649,265.924c0.486,7.61-1.059,15.834-5.175,22.396c-4.23,6.865-10.7,11.572-17.648,14.486
		c-6.968,2.924-14.341,4.23-21.64,4.719c-12.102,0.787-24.047-0.695-35.723-3.08c-12.641,33.047-31.73,54.137-53.08,54.137
		c-20.759,0-39.361-20.064-51.991-51.597c-10.67,2.405-21.588,3.94-32.673,3.608c-7.29-0.238-14.745-1.285-21.786-3.961
		c-7.041-2.664-13.677-7.145-18.156-13.854c-4.366-6.408-6.17-14.578-5.942-22.2c0.176-7.715,2.022-15.149,4.614-22.169
		c5.019-13.418,12.599-25.52,21.215-36.625c-1.13-1.307-2.302-2.592-3.401-3.929c-2.125,1.182-4.542,1.918-7.155,1.918
		c-8.192,0-14.838-6.646-14.838-14.838c0-4.728,2.261-8.896,5.703-11.613c-0.498-0.985-1.079-1.908-1.545-2.914
		c-3.08-6.657-5.485-13.75-6.273-21.268c-0.809-7.445,0.27-15.502,4.179-22.376c3.836-6.917,10.255-12.122,17.203-15.377
		c6.958-3.308,14.444-4.998,21.879-5.849c11.873-1.296,23.714-0.581,35.317,1.245c12.63-33.99,31.968-55.838,53.65-55.838
		c21.215,0,40.212,20.874,52.842,53.588c10.939-1.991,22.128-2.914,33.398-2.105c7.467,0.601,14.994,2.011,22.087,5.081
		c7.062,3.038,13.595,7.922,17.772,14.828c4.055,6.605,5.465,14.714,4.916,22.169c-0.509,7.539-2.686,14.704-5.518,21.454
		c-5.018,11.79-12.215,22.294-20.126,32.114c8.99,10.815,16.974,22.625,22.48,35.868
		C279.067,250.857,281.203,258.229,281.649,265.924z M204.325,123.357c4.75,14.341,8.338,30.569,10.494,48.072
		c13.625,10.452,26.432,21.973,37.692,35.1c0.03,0.042,0.062,0.083,0.093,0.124c7.352-9.923,13.729-20.562,17.99-31.979
		c2.406-6.605,4.107-13.5,4.221-20.365c0.146-6.854-1.379-13.532-5.153-19.069c-3.588-5.309-9.249-9.26-15.471-11.562
		c-6.273-2.364-13.138-3.349-19.991-3.546C224.245,119.853,214.208,121.211,204.325,123.357z M159.323,282.836
		c-2.903,1.534-5.807,3.068-8.762,4.5c14.175,5.982,28.795,10.856,43.841,14.009c0.798,0.166,1.607,0.27,2.405,0.425
		c7.705-20.748,12.838-46.506,14.342-74.771c-6.605-1.494-11.541-7.373-11.541-14.435c0-7.145,5.06-13.106,11.789-14.506
		c-0.197-5.589-0.508-11.116-0.984-16.508c-9.976-7.601-20.396-14.683-31.181-20.987c-10.245-6.077-20.853-11.51-31.657-16.436
		c-10.649,5.309-21.07,11.105-31.097,17.545c-10.483,6.657-20.583,14.061-30.227,21.952c-0.695,8.492-1.109,17.203-1.109,26.141
		c0,14.206,0.943,27.893,2.654,40.855c1.234,1.368,1.13,1.596,0.114,1.006c2.654,19.607,7.145,37.359,12.982,52.416
		c1.804-0.384,3.608-0.716,5.392-1.141c14.932-3.671,29.366-9.063,43.323-15.544c-11.956-5.31-23.621-11.292-34.851-17.948
		c11.375,6.646,23.196,12.566,35.329,17.721c3.048-1.421,6.045-2.977,9.052-4.512c-1.897-2.488-3.06-5.567-3.06-8.938
		c0-8.202,6.647-14.849,14.85-14.849c6.263,0,11.592,3.888,13.78,9.374c0.021-0.011,0.042-0.021,0.052-0.031
		c-0.021,0.01-0.041,0.021-0.052,0.031c0.675,1.7,1.068,3.535,1.068,5.475c0,8.202-6.647,14.849-14.849,14.849
		C166.198,288.528,162.04,286.278,159.323,282.836z M79.563,209.764c0-7.238,0.321-14.299,0.788-21.267
		c-10.027,8.585-19.598,17.752-28.101,27.79c-0.321,0.384-0.622,0.788-0.944,1.172c14.942,13.106,24.555,21.744,30.227,27.022
		C80.289,233.322,79.563,221.74,79.563,209.764z M110.505,152.246c7.756-4.915,15.802-9.405,23.984-13.667
		c-10.774-4.293-21.734-8.067-32.964-10.846c-1.524-0.363-3.059-0.643-4.583-0.975c-3.972,12.578-7.083,26.607-9.094,41.747
		C95.189,162.802,102.707,157.306,110.505,152.246z M208.752,166.887c-2.136-15.409-5.453-29.604-9.611-42.286
		c-2.054,0.508-4.127,0.985-6.16,1.545c-11.115,3.173-21.931,7.331-32.549,11.987c8.316,3.961,16.508,8.171,24.43,12.795
		C193.075,155.854,200.997,161.257,208.752,166.887z M100,117.716c1.203,0.228,2.427,0.394,3.619,0.643
		c15.035,3.152,29.614,7.932,43.716,13.812c13.885-6.377,28.288-11.676,43.208-15.356c1.794-0.436,3.619-0.768,5.423-1.162
		c-11.603-30.04-28.608-49.129-47.584-49.129C128.982,66.523,111.604,86.463,100,117.716z M44.753,210.324
		c0.031-0.042,0.063-0.083,0.093-0.125c10.909-13.667,23.455-25.747,36.873-36.769c2.022-17.327,5.392-33.482,9.955-47.802
		c-10.473-1.991-21.07-3.121-31.564-2.447c-6.864,0.457-13.688,1.68-19.857,4.262c-6.17,2.551-11.624,6.605-15.108,12.163
		c-3.505,5.538-4.822,12.36-4.438,19.183c0.373,6.844,2.292,13.688,4.956,20.199c0.353,0.861,0.819,1.669,1.193,2.52
		c1.908-0.892,4.013-1.421,6.252-1.421c8.192,0,14.838,6.647,14.838,14.838c0,4.874-2.385,9.167-6.014,11.862
		C42.846,208.001,43.82,209.142,44.753,210.324z M95.625,305.15c-6.429-16.591-11.147-36.293-13.76-57.84
		c-0.912-0.694-1.835-1.41-2.769-2.156c-10.255-8.037-19.95-16.799-28.919-26.297c-8.202,9.976-15.637,20.656-20.625,32.362
		c-5.33,12.464-8.005,27.116-0.996,38.698c3.267,5.496,8.835,9.851,15.077,12.525c6.294,2.748,13.272,4.106,20.292,4.666
		C74.44,307.888,85.1,307.037,95.625,305.15z M196.196,303.314c-0.715-0.166-1.432-0.29-2.137-0.456
		c-15.117-3.733-29.759-9.001-43.965-15.273c-13.978,6.771-28.432,12.546-43.416,16.818c-1.69,0.467-3.421,0.86-5.132,1.286
		c11.582,28.972,28.256,47.314,46.827,47.314C167.473,353.004,184.583,333.686,196.196,303.314z M269.268,246.979
		c-5.402-11.53-13.2-21.941-21.766-31.615c-6.76,7.693-14.061,14.838-21.692,21.63c5.786-5.683,13.532-13.749,20.843-22.615
		c-0.446-0.497-0.861-1.017-1.317-1.514c-8.855-9.747-18.758-18.571-29.065-26.805c0.291,3.94,0.54,7.901,0.686,11.935
		c6.988,1.203,12.318,7.248,12.318,14.58c0,7.414-5.455,13.5-12.547,14.6c-1.535,28.381-6.771,54.314-14.642,75.529
		c11.562,1.877,23.3,2.623,34.819,1.358c7-0.81,13.916-2.405,20.096-5.382c6.16-2.893,11.572-7.445,14.662-13.064
		C278.237,273.793,275.022,259.256,269.268,246.979z"/>
</g>
</svg>
